HIERARCHY
ROOT Hips
{
    OFFSET 0.0 0.0 0.0
    CHANNELS 6 Xposition Yposition Zposition Zrotation Xrotation Yrotation
    JOINT LeftHipJoint
    {
        OFFSET 0.1 0.0 0.0
        CHANNELS 3 Zrotation Xrotation Yrotation
        JOINT LeftUpLeg
        {
            OFFSET 124.3543748569561 0.0 0.0
            CHANNELS 3 Zrotation Xrotation Yrotation
            JOINT LeftLeg
            {
                OFFSET 0.0 0.0 -406.64604380772715
                CHANNELS 3 Zrotation Xrotation Yrotation
                JOINT LeftFoot
                {
                    OFFSET 0.0 0.0 -379.09291584280146
                    CHANNELS 3 Zrotation Xrotation Yrotation
                    End Site
                    {
                        OFFSET 0.0 -0.1 0.0
                    }
                }
            }
        }
    }
    JOINT LowerBack
    {
        OFFSET 0.0 0.0 0.1
        CHANNELS 3 Zrotation Xrotation Yrotation
        JOINT Spine
        {
            OFFSET 0.0 0.0 216.53150159420323
            CHANNELS 3 Zrotation Xrotation Yrotation
            JOINT Spine1
            {
                OFFSET 0.0 0.0 248.69589992049396
                CHANNELS 3 Zrotation Xrotation Yrotation
                JOINT LeftShoulder
                {
                    OFFSET 0.1 0.0 0.0
                    CHANNELS 3 Zrotation Xrotation Yrotation
                    JOINT LeftArm
                    {
                        OFFSET 143.2620845034126 0.0 0.0
                        CHANNELS 3 Zrotation Xrotation Yrotation
                        JOINT LeftForeArm
                        {
                            OFFSET 264.5328272719615 0.0 0.0
                            CHANNELS 3 Zrotation Xrotation Yrotation
                            JOINT LeftHand
                            {
                                OFFSET 238.90114060125782 0.0 0.0
                                CHANNELS 3 Zrotation Xrotation Yrotation
                                End Site
                                {
                                    OFFSET 0.1 0.0 0.0
                                }
                            }
                        }
                    }
                }
                JOINT Neck
                {
                    OFFSET 0.0 0.0 0.1
                    CHANNELS 3 Zrotation Xrotation Yrotation
                    JOINT Neck1
                    {
                        OFFSET 0.0 0.0 107.24890784810601
                        CHANNELS 3 Zrotation Xrotation Yrotation
                        End Site
                        {
                            OFFSET 0.0 0.0 117.13443488663079
                        }
                    }
                }
                JOINT RightShoulder
                {
                    OFFSET -0.1 0.0 0.0
                    CHANNELS 3 Zrotation Xrotation Yrotation
                    JOINT RightArm
                    {
                        OFFSET -143.2620845034126 0.0 0.0
                        CHANNELS 3 Zrotation Xrotation Yrotation
                        JOINT RightForeArm
                        {
                            OFFSET -264.5328272719615 0.0 0.0
                            CHANNELS 3 Zrotation Xrotation Yrotation
                            JOINT RightHand
                            {
                                OFFSET -238.90114060125782 0.0 0.0
                                CHANNELS 3 Zrotation Xrotation Yrotation
                                End Site
                                {
                                    OFFSET -0.1 0.0 0.0
                                }
                            }
                        }
                    }
                }
            }
        }
    }
    JOINT RightHipJoint
    {
        OFFSET -0.1 0.0 0.0
        CHANNELS 3 Zrotation Xrotation Yrotation
        JOINT RightUpLeg
        {
            OFFSET -124.3543748569561 0.0 0.0
            CHANNELS 3 Zrotation Xrotation Yrotation
            JOINT RightLeg
            {
                OFFSET 0.0 0.0 -406.64604380772715
                CHANNELS 3 Zrotation Xrotation Yrotation
                JOINT RightFoot
                {
                    OFFSET 0.0 0.0 -379.09291584280146
                    CHANNELS 3 Zrotation Xrotation Yrotation
                    End Site
                    {
                        OFFSET 0.0 -0.1 0.0
                    }
                }
            }
        }
    }
}
MOTION
Frames: 4
Frame Time: 0.03333333333333333
0.0 0.0 823.664692621663 26.067784434935124 0.32582074190260624 8.922529377826102 0.0 0.0 -2.9817700138720465e-16 -1.5815385051592523 -17.78281614015296 -4.165922478137883 0.7145131329225415 35.42079236107716 -0.3560748500029339 0.0 0.0 3.975693351829396e-16 0.0 0.0 -2.9817700138720465e-16 -0.23629469007491474 -2.739396637235464 1.6959174320619392 4.628013127669551 3.7316671705870446e-16 -6.11919990017072e-16 -2.758691436281349e-33 -3.9756933518293955e-16 -7.951386703658791e-16 -23.66601748849465 -47.56049211794704 23.348260439818212 -123.48086602648897 4.097052627571308e-15 -5.813243515956345e-15 0.0 0.0 0.0 -2.758691436281349e-33 -3.9756933518293955e-16 -7.951386703658791e-16 -5.378706698982196 -13.740790015347955 -4.775460659176925 -2.758691436281349e-33 -3.9756933518293955e-16 -7.951386703658791e-16 35.996397778659535 -53.837126650231866 -5.82824788757894 121.49587559564058 -5.549930646067004e-15 -3.1083729105376426e-15 1.5902773407317582e-15 0.0 0.0 0.0 0.0 -2.9817700138720465e-16 -1.0608918683961654 -12.098988282804289 -7.999250066083141 -2.1718754737242913 36.26384326442154 2.856831756177997 0.0 0.0 -7.951386703658792e-16
0.0 0.0 823.664692621663 26.098678661758107 0.24505067203782716 8.97697683096407 0.0 0.0 1.987846675914698e-16 -1.5756790912017145 -17.67966002634003 -4.214573819496232 0.6935701364911019 35.68515008004335 -0.2739019656691898 0.0 -3.1805546814635164e-15 0.0 0.0 0.0 1.987846675914698e-16 -0.2283261223668377 -2.6406340748331694 1.7371857460484934 4.68657332111354 -3.5659867130056846e-16 1.0093474949890904e-15 0.0 0.0 0.0 -23.45323354920155 -47.38060327053666 23.48606015033708 -123.65432359719735 4.504933693471108e-15 8.411238027391931e-15 0.0 3.1805546814635176e-15 0.0 0.0 0.0 0.0 -5.354018394422926 -13.625177071534415 -4.8262899836879924 0.0 0.0 0.0 35.62714230561232 -53.78028209513148 -6.035515642509514 121.5211016847368 -8.898881689008835e-16 -1.1433073257439737e-14 0.0 0.0 0.0 0.0 0.0 1.987846675914698e-16 -1.0592844028688677 -12.052775248802725 -8.164281618458817 -2.298045429836207 36.42054051445437 3.170062617165024 0.0 0.0 -7.951386703658792e-16
0.0 0.0 823.664692621663 26.090178252071773 0.13973375842726748 9.0822209653439 0.0 0.0 -9.93923337957349e-17 -1.5653151460780403 -17.40680816919809 -4.343659835390662 0.6303238841227438 35.597807409445274 -0.16260481385985168 0.0 0.0 7.951386703658792e-16 0.0 0.0 -9.93923337957349e-17 -0.2099677675595317 -2.4044929135050257 1.7122969076366383 4.7267895502334465 -3.3984972054986986e-16 1.406703736798579e-15 1.3793457181406746e-33 3.975693351829396e-16 -3.975693351829396e-16 -23.051901085990682 -47.15903982788404 23.819863397499972 -123.70330726706496 5.6087753013682205e-15 -3.000891858411396e-15 0.0 0.0 0.0 1.3793457181406746e-33 3.975693351829396e-16 -3.975693351829396e-16 -5.3137212375278295 -13.584852986286826 -4.7965674437574455 1.3793457181406746e-33 3.975693351829396e-16 -3.975693351829396e-16 35.33120983645403 -53.6781457997344 -6.222604146425268 121.45567023885569 -5.548839707213663e-15 -3.110319956333584e-15 0.0 0.0 -6.3611093629270335e-15 0.0 0.0 -9.93923337957349e-17 -1.0459619705113437 -11.7903490484472 -8.346432230695886 -2.3828754124910776 36.232688324183066 3.326493154896964 0.0 0.0 -2.3854160110976376e-15
0.0 0.0 823.664692621663 26.111018248263637 0.1079400679927676 9.160878042797933 0.0 0.0 9.93923337957349e-17 -1.5664960865569966 -17.260059278197893 -4.361876412466234 0.650878655951774 35.59824422755171 -0.251196119468501 0.0 0.0 -7.951386703658792e-16 0.0 0.0 9.93923337957349e-17 -0.19848026427713458 -2.2509954759502557 1.7502267928628918 4.807963524342662 -2.5014120844728844e-17 -5.958291620787166e-16 0.0 0.0 -3.975693351829396e-16 -22.99669774853558 -46.95217578736008 23.883025126793694 -123.59413119627294 -8.612147889189195e-15 -2.5996794781222564e-15 0.0 3.1805546814635168e-15 0.0 0.0 0.0 -3.975693351829396e-16 -5.45833060941549 -13.556613674833772 -4.864713229797958 0.0 0.0 -3.975693351829396e-16 35.312046745143896 -53.60500389962374 -6.213171954251215 121.3921465141823 2.4337191792997942e-15 8.660510124152287e-15 0.0 0.0 0.0 0.0 0.0 9.93923337957349e-17 -1.0408938092578923 -11.623364647062026 -8.464523098572936 -2.4347265214451106 36.22467746075573 3.3777090114200545 0.0 0.0 7.951386703658792e-16
